<?xml version="1.0" encoding="UTF-8"?>
<svg width="64px" height="64px" viewBox="0 0 64 64" version="1.1" xmlns="http://www.w3.org/2000/svg" xmlns:xlink="http://www.w3.org/1999/xlink">
    <title>Comms</title>
    <g id="Specialists-Overview" stroke="none" stroke-width="1" fill="none" fill-rule="evenodd">
        <g id="Specialist-Border" stroke="#FF6F2D" stroke-width="2" fill="#FFFFFF">
            <path d="M44.5693686,1.56414504 L19.3023413,1.56414504 L1.43585496,19.4306314 L1.43585496,44.6976587 L19.3023413,62.564145 L44.5693686,62.564145 L62.435855,44.6976587 L62.435855,19.4306314 L44.5693686,1.56414504 Z" id="Polygon"></path>
        </g>
        <g id="Comms-Specialist" fill="#FF6F2D">
            <path d="M17.0933288,15.072597 L20.3632998,18.9959118 C19.5819345,19.6439369 18.8559269,20.3624524 18.1983119,21.1482173 C13.8788765,26.3097316 12.7413063,33.9081056 15.4632515,40.195278 C15.526575,40.3387704 15.5911054,40.4816146 15.6570037,40.6238917 C16.6606852,42.7533486 18.1027232,44.6244218 19.8366768,46.169457 L16.2735027,50 C14.0228228,47.9035197 12.2049474,45.3529842 10.920132,42.5360438 C6.77779319,33.2891679 9.56515384,21.649509 17.0933288,15.072597 Z M46.8381569,15 C49.1947246,16.9751073 51.142546,19.4263891 52.5718709,22.1718668 C57.1887739,31.1879071 55.0097051,42.9584188 47.83339,49.9227847 L44.3641953,46.1770732 C45.1107207,45.4887794 45.7985089,44.7329932 46.4143642,43.9136846 C50.4598269,38.5317866 51.2012027,30.8839074 48.1565249,24.7486539 C48.0858794,24.6087265 48.0139465,24.4694472 47.9407262,24.3308162 C46.8278578,22.2571034 45.2907139,20.4646229 43.4788732,19.0130077 L46.8381569,15 Z M22.2158543,21.2186266 L25.4916186,25.1488284 C24.9998356,25.552568 24.5453064,26.0101071 24.1381692,26.5213647 C21.8469366,29.3985865 21.2753353,33.5206517 22.7658113,36.9633358 C22.8012145,37.043711 22.8373419,37.1236 22.8741935,37.203246 C23.4465189,38.4173816 24.2867019,39.4558585 25.3014067,40.2945316 L21.7274507,44.136742 C20.2386644,42.7595064 19.0344718,41.0816739 18.1806103,39.2095473 C15.4708149,33.1605027 17.2890926,25.5329603 22.2158543,21.2186266 Z M41.6961597,21.1424646 C43.254465,22.4394061 44.5441081,24.0515286 45.4940411,25.8760944 C48.5142585,31.7741924 47.094589,39.4870525 42.3986724,44.0549894 L38.9232821,40.3025529 C39.3935014,39.8735341 39.8236506,39.3927412 40.2036721,38.8607416 C42.3422686,35.8666841 42.6990366,31.7202308 41.0318663,28.3606768 C40.9922791,28.2823272 40.9520481,28.2044637 40.911093,28.1268433 C40.2765706,26.9444689 39.3835241,25.9517702 38.3266573,25.1676258 L41.6961597,21.1424646 Z M26.2960765,35.5358656 C24.8412452,32.3704436 26.2122353,28.6111201 29.3557202,27.1461361 C32.4992052,25.6811521 36.2324758,27.0617097 37.6873071,30.2271317 C39.1421385,33.3925537 37.7711484,37.1518772 34.6276634,38.6168612 C31.484098,40.0818452 27.7509079,38.7012876 26.2960765,35.5358656 Z" id="Fill-1"></path>
        </g>
    </g>
</svg>
