<?xml version="1.0" encoding="UTF-8"?>
<svg width="64px" height="64px" viewBox="0 0 64 64" version="1.1" xmlns="http://www.w3.org/2000/svg" xmlns:xlink="http://www.w3.org/1999/xlink">
    <title>Demolitions</title>
    <g id="Specialists-Overview" stroke="none" stroke-width="1" fill="none" fill-rule="evenodd">
        <g id="Specialist-Border" stroke="#FF6F2D" stroke-width="2" fill="#FFFFFF">
            <path d="M44.5693686,1.56414504 L19.3023413,1.56414504 L1.43585496,19.4306314 L1.43585496,44.6976587 L19.3023413,62.564145 L44.5693686,62.564145 L62.435855,44.6976587 L62.435855,19.4306314 L44.5693686,1.56414504 Z" id="Polygon"></path>
        </g>
        <g id="Demo-Specialist" fill="#FF6F2D">
            <path d="M20.0059,35.9665 L24.2981,35.9665 L25.6975,43.6688 L35.4233,46.1045 C33.065,49.6977 29.0134,52.0819 24.407,52.1189 L24.2981,52.1193 C16.9587,52.1193 11,46.1606 11,38.8212 C11,33.8135 13.7741,29.4485 17.868,27.1806 L20.0059,35.9665 Z M29.131,39.5064 L36.7302,37.5464 L37.3575,42.3251 L29.131,39.5064 Z M45.5278,38.3428 L39.5525,39.0041 L38.8798,36.3911 L50.5283,30.9912 L45.5278,38.3428 Z M45.5278,29.6747 L30.9093,36.004 L28.585,34.8626 L53.3754,15.1773 L45.5278,29.6747 Z M25.1184,30.9912 L29.131,26.523 L35.5015,24.7513 L30.1966,30.0769 L25.1184,30.9912 Z M21.5465,25.9633 L22.4116,16.5012 L33.3491,12 L22.4116,28.8285 L21.5465,25.9633 Z M37.3575,22.8225 L30.7801,22.8225 L36.6301,14.3026 L47.119,12.9336 L37.3575,22.8225 Z" id="Fill-1"></path>
        </g>
    </g>
</svg>
