<?xml version="1.0" encoding="UTF-8"?>
<svg width="64px" height="64px" viewBox="0 0 64 64" version="1.1" xmlns="http://www.w3.org/2000/svg" xmlns:xlink="http://www.w3.org/1999/xlink">
    <title>Medic</title>
    <g id="Specialists-Overview" stroke="none" stroke-width="1" fill="none" fill-rule="evenodd">
        <g id="Specialist-Border" stroke="#FF6F2D" stroke-width="2" fill="#FFFFFF">
            <path d="M44.5693686,1.56414504 L19.3023413,1.56414504 L1.43585496,19.4306314 L1.43585496,44.6976587 L19.3023413,62.564145 L44.5693686,62.564145 L62.435855,44.6976587 L62.435855,19.4306314 L44.5693686,1.56414504 Z" id="Polygon"></path>
        </g>
        <g id="Medic-Specialist" fill="#FF6F2D">
            <path d="M26.6268,27.4161 L20.9426,21.7319 L32.3109,10.3636 L43.6793,21.7319 L37.9951,27.4161 L43.6793,33.1003 L37.9951,38.7845 L43.6793,44.4687 L32.3109,55.837 L20.9426,44.4687 L26.6268,38.7845 L20.9426,33.1003 L26.6268,27.4161 Z M35.5473,44.4687 L32.3109,41.2323 L29.0746,44.4687 L32.3109,47.705 L35.5473,44.4687 Z M44.3043,40.5951 L48.0013,22.754 L57.0036,22.754 L52.9553,35.516 L44.3043,40.5951 Z M16.6206,22.754 L20.3176,40.5951 L11.6666,35.516 L7.6183,22.754 L16.6206,22.754 Z M35.5473,33.1003 L32.3109,29.8639 L29.0746,33.1003 L32.3109,36.3367 L35.5473,33.1003 Z M35.5473,21.7319 L32.3109,18.4956 L29.0746,21.7319 L32.3109,24.9683 L35.5473,21.7319 Z" id="Fill-2"></path>
        </g>
    </g>
</svg>
