<?xml version="1.0" encoding="UTF-8"?>
<svg width="64px" height="64px" viewBox="0 0 64 64" version="1.1" xmlns="http://www.w3.org/2000/svg" xmlns:xlink="http://www.w3.org/1999/xlink">
    <title>Scout</title>
    <g id="Specialists-Overview" stroke="none" stroke-width="1" fill="none" fill-rule="evenodd">
        <g id="Specialist-Border" stroke="#FF6F2D" stroke-width="2" fill="#FFFFFF">
            <path d="M44.5693686,1.56414504 L19.3023413,1.56414504 L1.43585496,19.4306314 L1.43585496,44.6976587 L19.3023413,62.564145 L44.5693686,62.564145 L62.435855,44.6976587 L62.435855,19.4306314 L44.5693686,1.56414504 Z" id="Polygon"></path>
        </g>
        <g id="Scout-Specialist" fill="#FF6F2D">
            <path d="M33.0620854,30.8119845 L25.8733198,21.4993285 C25.768298,21.3912966 25.6762363,21.2725793 25.5982967,21.1429953 C24.3863897,19.1300526 27.0096112,15.2666225 31.4527043,12.5208197 C35.895708,9.77501698 40.4869043,9.18007192 41.6988113,11.1929241 C41.8007048,11.362171 41.8754267,11.5444578 41.9242284,11.738064 L52.9247942,38.3318365 L52.9109403,38.3404392 C53.3942194,39.5685434 51.8681407,41.7161411 49.36451,43.2633605 C46.8609687,44.8104893 44.2777896,45.2025011 43.4211691,44.2051305 L43.4073151,44.2136426 L37.4799733,36.5350481 L35.6005744,37.9142883 L41.4780421,45.59406 L41.4668695,45.6059227 C42.2483212,46.6648706 41.325023,49.1401861 39.3039564,51.293036 C37.2828004,53.4458859 34.8887499,54.5040188 33.8058186,53.7661783 L33.7947355,53.7781315 L11.040128,36.4561748 C10.9109735,36.3795655 10.7917403,36.2891012 10.6832326,36.1845104 C8.99689511,34.5595045 10.5398667,30.1383473 14.1266968,26.3178401 C17.713527,22.4972424 21.9946631,20.7147617 23.6810006,22.3397676 C23.8227577,22.4763243 23.9416335,22.6327124 24.0384323,22.8068493 L31.2069085,32.1733854 L33.0620854,30.8119845 Z M15.9597074,28.0841116 C18.1303072,25.7720663 20.5915716,24.568593 21.4525717,25.3983467 C22.3135719,26.2280098 21.2503042,28.7787575 19.0797044,31.0908027 C16.9091046,33.402848 14.4478401,34.6063213 13.58684,33.7765676 C12.7258399,32.9469045 13.7891076,30.3961568 15.9597074,28.0841116 Z M32.9460698,14.7507318 C35.458281,13.2134734 37.9626267,12.7450334 38.535018,13.7052766 C39.1074986,14.6656102 37.5327076,16.6932229 35.0205858,18.2304812 C32.5083746,19.7677395 30.0041183,20.2361795 29.4316377,19.2759364 C28.859157,18.3156933 30.433948,16.2879901 32.9460698,14.7507318 Z" id="Fill-1"></path>
        </g>
    </g>
</svg>
