<?xml version="1.0" encoding="UTF-8"?>
<svg width="64px" height="64px" viewBox="0 0 64 64" version="1.1" xmlns="http://www.w3.org/2000/svg" xmlns:xlink="http://www.w3.org/1999/xlink">
    <title>Veteran</title>
    <g id="Specialists-Overview" stroke="none" stroke-width="1" fill="none" fill-rule="evenodd">
        <g id="Specialist-Border" stroke="#FF6F2D" stroke-width="2" fill="#FFFFFF">
            <path d="M44.5693686,1.56414504 L19.3023413,1.56414504 L1.43585496,19.4306314 L1.43585496,44.6976587 L19.3023413,62.564145 L44.5693686,62.564145 L62.435855,44.6976587 L62.435855,19.4306314 L44.5693686,1.56414504 Z" id="Polygon"></path>
        </g>
        <g id="Veteran-Specialist" fill="#FF6F2D">
            <path d="M20.5281,39.1587 C23.3154,39.1587 25.5551,41.498 25.5551,44.2355 C25.5551,46.973 23.3154,49.2626 20.5281,49.2626 L20.4285,49.2626 L20.4285,52.7965 L44.668,52.7965 L44.668,49.2128 L44.2201,49.2128 C41.4328,49.2128 39.193,46.973 39.193,44.1858 C39.193,41.3985 41.4328,39.1587 44.2201,39.1587 L44.3196,39.1587 C46.8083,39.4573 49.0978,41.2989 49.0978,43.8871 L49.0978,43.9867 L52.6317,43.9867 L52.6317,19.8467 L49.0481,19.8467 L49.0481,20.2946 C49.0481,23.0819 46.8083,25.3217 44.021,25.3217 C41.7812,25.3217 39.9396,23.8783 39.2428,21.8874 C39.0934,21.4394 39.0437,20.9417 39.0437,20.444 C39.0437,17.6567 41.2835,15.4169 44.0708,15.4169 L44.1703,15.4169 L44.1703,11.8332 L20.0303,11.8332 L20.0303,15.4169 L20.4783,15.4169 C23.2656,15.4169 25.5054,17.6567 25.5054,20.444 C25.5054,23.2313 23.2656,25.4711 20.4783,25.4711 L20.0303,25.4711 L20.0303,25.5208 C17.5417,25.2222 15.5507,23.1317 15.5507,20.5435 L15.5507,20.444 L12.0168,20.444 L12.0168,44.6835 L15.6005,44.6835 L15.6005,44.2355 C15.6005,41.498 17.7905,39.308 20.4783,39.2084 L20.5281,39.1587 Z" id="Fill-2"></path>
        </g>
    </g>
</svg>
