<?xml version="1.0" encoding="UTF-8"?>
<svg width="64px" height="64px" viewBox="0 0 64 64" version="1.1" xmlns="http://www.w3.org/2000/svg" xmlns:xlink="http://www.w3.org/1999/xlink">
    <title>Commander</title>
    <g id="Specialists-Overview" stroke="none" stroke-width="1" fill="none" fill-rule="evenodd">
        <g id="Specialist-Border" stroke="#FF6F2D" stroke-width="2" fill="#FFFFFF">
            <path d="M44.5693686,1.56414504 L19.3023413,1.56414504 L1.43585496,19.4306314 L1.43585496,44.6976587 L19.3023413,62.564145 L44.5693686,62.564145 L62.435855,44.6976587 L62.435855,19.4306314 L44.5693686,1.56414504 Z" id="Polygon"></path>
        </g>
        <g id="Commander-Specialist" fill="#FF6F2D">
            <path d="M32.5009384,52.7724945 L31.1322978,55 L28.5309324,54.8997439 L27.9246452,52.7986224 L27.2903056,54.67924 C27.2903056,54.67924 26.9241428,54.5488972 23.7504692,54.2140836 C26.4178169,46.4248906 20.8049682,49.3902134 17.1531198,45.7893088 C15.8124328,44.6224589 15,43.0986262 15,41.4325744 C15,40.1252869 15.5002018,38.9062801 16.362714,37.8777896 L16.3666651,37.8717524 C19.4623057,34.1686124 16.9729523,33.272444 15.8003821,29.3848248 C15.2801288,27.8269466 15,26.1708908 15,24.4526821 C15,15.3722346 22.8420261,8 32.5009384,8 C42.1579739,8 50,15.3722346 50,24.4526821 C50,26.1708908 49.7198712,27.8269466 49.1996179,29.3848248 C48.0269489,33.272444 45.5376943,34.1686124 48.6332362,37.8717524 L48.637286,37.8777896 C49.4996994,38.9062801 50,40.1252869 50,41.4325744 C50,43.0986262 49.1875672,44.6224589 47.8468802,45.7893088 C44.1950318,49.3902134 38.5820843,46.4248906 41.249432,54.2140836 C38.0758572,54.5488972 37.7096944,54.67924 37.7096944,54.67924 L37.0753548,52.7986224 L36.4690676,54.8997439 L33.8677022,55 L32.5009384,52.7724945 Z M32.5009384,43.0364734 C33.6176013,44.375827 34.3359006,45.8655153 34.7160895,47.4774308 C33.3654261,48.1932768 31.8907001,48.2132686 30.2838117,47.4774308 C30.7080548,45.8174161 31.4744579,44.3537568 32.5009384,43.0364734 Z M43.6727042,36.706882 C44.3150447,37.2762532 44.7512396,38.0241654 44.8673015,38.8782718 C45.1635308,41.0475833 43.2925153,43.0986262 40.6932242,43.4555101 C38.0938344,43.8123939 35.7405944,42.3387388 35.4444639,40.1694273 C35.4044596,39.8647003 35.4044596,39.5639322 35.4444639,39.2692011 L43.6727042,36.706882 Z M21.3719425,36.706882 C20.7297008,37.2762532 20.2934071,38.0241654 20.1773453,38.8782718 C19.8812148,41.0475833 21.7521314,43.0986262 24.3515213,43.4555101 C26.9508124,43.8123939 29.3040524,42.3387388 29.6001829,40.1694273 C29.6402859,39.8647003 29.6402859,39.5639322 29.6001829,39.2692011 L21.3719425,36.706882 Z" id="Fill-2"></path>
        </g>
    </g>
</svg>
