<?xml version="1.0" encoding="UTF-8"?>
<svg width="64px" height="64px" viewBox="0 0 64 64" version="1.1" xmlns="http://www.w3.org/2000/svg" xmlns:xlink="http://www.w3.org/1999/xlink">
    <title>Sniper</title>
    <g id="Specialists-Overview" stroke="none" stroke-width="1" fill="none" fill-rule="evenodd">
        <g id="Specialist-Border" stroke="#FF6F2D" stroke-width="2" fill="#FFFFFF">
            <path d="M44.5693686,1.56414504 L19.3023413,1.56414504 L1.43585496,19.4306314 L1.43585496,44.6976587 L19.3023413,62.564145 L44.5693686,62.564145 L62.435855,44.6976587 L62.435855,19.4306314 L44.5693686,1.56414504 Z" id="Polygon"></path>
        </g>
        <g id="Sniper-Specialist" fill="#FF6F2D">
            <g id="Group" transform="translate(13.000000, 13.000000)">
                <path d="M19.2586,-1.0658141e-14 C29.8878,-1.0658141e-14 38.5173,8.6295 38.5173,19.2587 C38.5173,29.8878 29.8878,38.5173 19.2586,38.5173 C8.6295,38.5173 -1.0658141e-14,29.8878 -1.0658141e-14,19.2587 C-1.0658141e-14,8.6295 8.6295,-1.0658141e-14 19.2586,-1.0658141e-14 Z M19.2586,6.8196 C26.1239,6.8196 31.6977,12.3934 31.6977,19.2587 C31.6977,26.124 26.1239,31.6977 19.2586,31.6977 C12.3933,31.6977 6.8196,26.124 6.8196,19.2587 C6.8196,12.3934 12.3933,6.8196 19.2586,6.8196 Z" id="Fill-2"></path>
                <path d="M19.2586,14.5542 C21.8551,14.5542 23.9631,16.6622 23.9631,19.2587 C23.9631,21.8551 21.8551,23.9631 19.2586,23.9631 C16.6622,23.9631 14.5542,21.8551 14.5542,19.2587 C14.5542,16.6622 16.6622,14.5542 19.2586,14.5542 Z" id="Fill-1"></path>
            </g>
        </g>
    </g>
</svg>
