<?xml version="1.0" encoding="UTF-8"?>
<svg width="64px" height="64px" viewBox="0 0 64 64" version="1.1" xmlns="http://www.w3.org/2000/svg" xmlns:xlink="http://www.w3.org/1999/xlink">
    <title>Zealot</title>
    <g id="Specialists-Overview" stroke="none" stroke-width="1" fill="none" fill-rule="evenodd">
        <g id="Specialist-Border" stroke="#FF6F2D" stroke-width="2" fill="#FFFFFF">
            <path d="M44.5693686,1.56414504 L19.3023413,1.56414504 L1.43585496,19.4306314 L1.43585496,44.6976587 L19.3023413,62.564145 L44.5693686,62.564145 L62.435855,44.6976587 L62.435855,19.4306314 L44.5693686,1.56414504 Z" id="Polygon"></path>
        </g>
        <g id="Zealot-Specialist" fill="#FF6F2D">
            <path d="M36.379,9.08149367 C36.2761,9.36609367 36.1753,9.65129367 36.0758,9.93709367 C35.594,11.3481937 35.154,12.7839937 34.8263,14.2443937 C34.7611,14.4917937 34.7613,14.4912937 34.6982,14.7389937 C34.0528,17.3648937 33.4506,19.7379937 34.3471,23.1225937 C34.9023,25.2188937 36.2863,27.2428937 37.5442,28.9402937 C37.5442,28.9402937 43.0264,38.3560937 39.4552,45.6301937 C37.3874,49.8420937 33.5785,52.9911937 29.458,55.3309937 C29.458,55.3309937 30.2545,53.2290937 30.7403,51.8899937 C31.6436,49.3397937 32.4097,47.0412937 32.0991,43.7709937 C31.7339,39.9258937 28.4844,37.2190937 26.809,34.3411937 C26.809,34.3411937 23.7845,27.2921937 25.1198,22.3701937 C26.6524,16.7209937 31.2598,12.3724937 36.1255,9.18139367 C36.1255,9.18139367 36.4602,8.85149367 36.379,9.08149367 Z M22.0111,23.5053937 C21.9874,23.6910937 21.9654,23.8768937 21.9443,24.0628937 C21.6459,26.8728937 21.5365,29.8719937 22.8177,32.2914937 C23.5551,33.6841937 24.444,34.5157937 25.6125,35.8752937 C25.6125,35.8752937 26.4789,37.1270937 26.4789,37.1270937 C27.4534,38.8874937 27.7774,40.1155937 28.0573,41.7718937 C28.0573,41.7718937 28.2163,44.2887937 28.0155,45.4494937 C27.4132,48.9314937 25.0865,52.0511937 22.0678,53.5699937 C22.0678,53.5699937 22.6947,47.2251937 21.5739,45.2297937 C20.6458,43.5774937 18.6324,41.5531937 18.6324,41.5531937 C17.5398,40.0395937 16.6428,38.3444937 16.1835,36.4293937 L16,33.1406937 C16.4264,29.3378937 18.8975,26.0118937 21.9737,23.4847937 C21.9737,23.4847937 22.0262,23.3773937 22.0111,23.5053937 Z M44.5164,17.4444937 C44.3106,18.1025937 44.1367,18.7711937 44.0265,19.4522937 C43.6784,21.6033937 44.2665,23.6513937 45.9245,25.6682937 L47.506,27.9250937 C48.1966,29.1676937 48.7079,30.8386937 48.7619,31.1295937 C49.5277,35.2545937 47.6189,39.6800937 43.4098,42.3624937 C42.8557,42.7155937 41.6631,43.9717937 42.1714,42.5899937 C42.1714,42.5899937 43.6906,38.0075937 43.0646,35.7205937 C42.5636,33.8902937 41.3296,32.3796937 40.5417,30.4921937 C40.5359,30.4781937 39.8671,28.4453937 39.8671,28.4453937 C39.474,26.7942937 39.2782,25.1058937 39.6268,23.4044937 C40.14,20.8993937 42.0606,18.8606937 44.4885,17.4223937 C44.4885,17.4223937 44.5485,17.3385937 44.5164,17.4444937 Z" id="Fill-1"></path>
        </g>
    </g>
</svg>
